<svg width="16" height="16" viewBox="0 0 16 16" fill="none" xmlns="http://www.w3.org/2000/svg">
<g clip-path="url(#clip0_1_1285)">
<mask id="mask0_1_1285" style="mask-type:luminance" maskUnits="userSpaceOnUse" x="0" y="0" width="16" height="16">
<path d="M16 0H0V16H16V0Z" fill="white"/>
</mask>
<g mask="url(#mask0_1_1285)">
<path fill-rule="evenodd" clip-rule="evenodd" d="M3.70566 5.6217C3.88239 5.30841 3.87724 4.92433 3.69218 4.61588L2.86619 3.23923L3.23923 2.86619L4.61588 3.69218C4.92433 3.87724 5.3084 3.88239 5.6217 3.70566C5.93549 3.52866 6.28311 3.38644 6.66139 3.27468C7.00105 3.17432 7.26228 2.90179 7.34818 2.55819L7.73773 1H8.26227L8.65182 2.55819C8.73824 2.90389 9.00209 3.17748 9.34442 3.27637C9.72364 3.38592 10.0606 3.52644 10.3783 3.70566C10.6916 3.88239 11.0757 3.87724 11.3841 3.69218L12.7608 2.86619L13.1338 3.23923L12.3078 4.61588C12.1228 4.92433 12.1176 5.30841 12.2943 5.6217C12.4781 5.94747 12.6239 6.29043 12.7196 6.64116C12.8147 6.9901 13.0909 7.26046 13.4418 7.34818L15 7.73773V8.26227L13.4418 8.65182C13.0961 8.73824 12.8225 9.00209 12.7236 9.34442C12.6141 9.72364 12.4736 10.0606 12.2943 10.3783C12.1176 10.6916 12.1228 11.0757 12.3078 11.3841L13.1338 12.7608L12.7608 13.1338L11.3841 12.3078C11.0757 12.1228 10.6916 12.1176 10.3783 12.2943C10.0645 12.4713 9.71689 12.6136 9.33861 12.7253C8.99895 12.8257 8.73772 13.0982 8.65182 13.4418L8.26227 15H7.73773L7.34818 13.4418C7.26176 13.0961 6.99791 12.8225 6.65558 12.7236C6.27636 12.6141 5.93942 12.4736 5.6217 12.2943C5.30841 12.1176 4.92433 12.1228 4.61588 12.3078L3.23923 13.1338L2.86619 12.7608L3.69218 11.3841C3.87724 11.0757 3.88239 10.6916 3.70566 10.3783C3.5219 10.0525 3.37607 9.70957 3.28042 9.35884C3.18526 9.0099 2.90908 8.73954 2.55819 8.65182L1 8.26227V7.73773L2.55819 7.34818C2.90389 7.26176 3.17748 6.99791 3.27637 6.65558C3.38592 6.27636 3.52644 5.93942 3.70566 5.6217ZM2.83468 5.13038L1.60699 3.08422L3.08422 1.60699L5.13038 2.83468C5.51965 2.6151 5.93886 2.44541 6.37804 2.31566L6.95696 0H9.04304L9.62196 2.31566C10.0711 2.44541 10.4803 2.6151 10.8696 2.83468L12.9158 1.60699L14.393 3.08422L13.1653 5.13038C13.3849 5.51965 13.5646 5.93886 13.6843 6.37804L16 6.95696V9.04304L13.6843 9.62196C13.5546 10.0711 13.3849 10.4803 13.1653 10.8696L14.393 12.9158L12.9158 14.393L10.8696 13.1653C10.4803 13.3849 10.0611 13.5546 9.62196 13.6843L9.04304 16H6.95696L6.37804 13.6843C5.92888 13.5546 5.51965 13.3849 5.13038 13.1653L3.08422 14.393L1.60699 12.9158L2.83468 10.8696C2.6151 10.4803 2.43543 10.0611 2.31566 9.62196L0 9.04304V6.95696L2.31566 6.37804C2.44541 5.92888 2.6151 5.51965 2.83468 5.13038ZM10.13 8.01C10.13 9.18637 9.17636 10.14 8 10.14C6.82363 10.14 5.87 9.18637 5.87 8.01C5.87 6.83364 6.82363 5.88 8 5.88C9.17636 5.88 10.13 6.83364 10.13 8.01ZM8 11.14C9.72865 11.14 11.13 9.73866 11.13 8.01C11.13 6.28135 9.72865 4.88 8 4.88C6.27134 4.88 4.87 6.28135 4.87 8.01C4.87 9.73866 6.27134 11.14 8 11.14Z" fill="#C80000"/>
</g>
</g>
<defs>
<clipPath id="clip0_1_1285">
<rect width="16" height="16" fill="white"/>
</clipPath>
</defs>
</svg>
