<svg width="10" height="16" viewBox="0 0 10 16" fill="none" xmlns="http://www.w3.org/2000/svg">
<g clip-path="url(#clip0_1_1265)">
<path d="M1.68667 8.73984C1.88667 8.91984 2 9.17984 2 9.4665V10.9998C2 11.5465 2.26667 12.0265 2.67333 12.3332C2.67333 12.3532 2.67333 12.3798 2.67333 12.3998L3.12667 14.6598C3.28 15.4398 3.96667 15.9998 4.76 15.9998H5.24C6.03333 15.9998 6.72 15.4332 6.87333 14.6598L7.32667 12.3998C7.32667 12.3998 7.32667 12.3532 7.32667 12.3332C7.73333 12.0265 8 11.5465 8 10.9998V9.4665C8 9.1865 8.12 8.91984 8.32667 8.73317C9.53333 7.6665 10.1333 6.11984 9.97333 4.49984C9.75333 2.17317 7.9 0.293169 5.58 0.0331688C4.12667 -0.126831 2.74 0.313169 1.66667 1.27317C0.606667 2.21984 0 3.57984 0 4.99984C0 6.41984 0.613333 7.79317 1.68667 8.73984ZM6.59333 12.6665L6.22 14.5265C6.12667 14.9932 5.71333 15.3332 5.24 15.3332H4.76C4.28667 15.3332 3.87333 14.9932 3.78 14.5265L3.40667 12.6665H6.59333ZM2.11333 1.7665C2.92 1.0465 3.92667 0.666502 4.99333 0.666502C5.16 0.666502 5.33333 0.673169 5.5 0.693169C7.48 0.913169 9.11333 2.57984 9.30667 4.55984C9.44667 5.9665 8.92 7.3065 7.88 8.23317C7.53333 8.5465 7.32667 8.99317 7.32667 9.4665V10.9998C7.32667 11.5532 6.88 11.9998 6.32667 11.9998H5.32667V7.13984L7.22667 5.23984C7.36 5.1065 7.36 4.89984 7.22667 4.7665C7.09333 4.63317 6.88667 4.63317 6.75333 4.7665L4.98667 6.53317L3.22 4.7665C3.08667 4.63317 2.88 4.63317 2.74667 4.7665C2.61333 4.89984 2.61333 5.1065 2.74667 5.23984L4.64667 7.13984V11.9998H3.64667C3.09333 11.9998 2.64667 11.5532 2.64667 10.9998V9.4665C2.64667 8.99317 2.44667 8.5465 2.10667 8.23984C1.18 7.41984 0.646667 6.23984 0.646667 4.99984C0.646667 3.75984 1.17333 2.5865 2.09333 1.7665H2.11333Z" fill="#C80000"/>
</g>
<defs>
<clipPath id="clip0_1_1265">
<rect width="10" height="16" fill="white"/>
</clipPath>
</defs>
</svg>
