<svg width="12" height="16" viewBox="0 0 12 16" fill="none" xmlns="http://www.w3.org/2000/svg">
<path fill-rule="evenodd" clip-rule="evenodd" d="M11 6C11 7.58593 10.1331 9.49492 8.9432 11.2604C7.93307 12.7593 6.7821 14.0206 6 14.7216C5.2179 14.0206 4.06693 12.7593 3.05676 11.2604C1.86688 9.49492 1 7.58593 1 6C1 3.23858 3.23858 1 6 1C8.7614 1 11 3.23858 11 6ZM12 6C12 9.78487 7.97102 14.4651 6.26688 15.8047C6.1082 15.9295 5.8918 15.9295 5.73312 15.8047C4.02898 14.4651 0 9.78487 0 6C0 2.68629 2.68629 0 6 0C9.3137 0 12 2.68629 12 6ZM8 6C8 7.10457 7.10457 8 6 8C4.89543 8 4 7.10457 4 6C4 4.89543 4.89543 4 6 4C7.10457 4 8 4.89543 8 6ZM9 6C9 7.65685 7.65685 9 6 9C4.34315 9 3 7.65685 3 6C3 4.34315 4.34315 3 6 3C7.65685 3 9 4.34315 9 6Z" fill="#C80000"/>
</svg>
