<svg width="16" height="16" viewBox="0 0 16 16" fill="none" xmlns="http://www.w3.org/2000/svg">
<g clip-path="url(#clip0_1_1273)">
<path fill-rule="evenodd" clip-rule="evenodd" d="M5.19995 3.3C5.19995 2.03171 6.22258 1 7.49995 1C8.77615 1 9.79995 2.0406 9.79995 3.3V4.7C9.79995 5.96829 8.77732 7 7.49995 7C6.22376 7 5.19995 5.9594 5.19995 4.7V3.3ZM7.49995 0C5.67732 0 4.19995 1.46891 4.19995 3.3V4.7C4.19995 6.51985 5.67615 8 7.49995 8C9.32258 8 10.8 6.53109 10.8 4.7V3.3C10.8 1.48015 9.32376 0 7.49995 0ZM1 12.83C1 10.7416 2.69861 9.29523 4.80025 9.29C4.8045 9.29336 4.81149 9.29917 4.82027 9.31C5.42086 10.1404 6.39636 10.68 7.5 10.68C8.60365 10.68 9.57915 10.1404 10.1797 9.31C10.1885 9.29918 10.1955 9.29336 10.1998 9.29C12.3014 9.29523 14 10.7416 14 12.83V14.78C14 14.9039 13.9039 15 13.78 15H1.22C1.09614 15 1 14.9039 1 14.78V12.83ZM4.81 8.29C2.15613 8.29 0 10.1816 0 12.83V14.78C0 15.4562 0.543857 16 1.22 16H13.78C14.4561 16 15 15.4562 15 14.78V12.83C15 10.1816 12.8439 8.29 10.19 8.29C9.82573 8.29 9.55168 8.4916 9.38369 8.71H9.37869L9.37391 8.72C8.95395 9.30464 8.27245 9.68 7.5 9.68C6.72755 9.68 6.04604 9.30464 5.62609 8.72L5.62131 8.71H5.61631C5.44832 8.4916 5.17427 8.29 4.81 8.29Z" fill="#C80000"/>
</g>
<defs>
<clipPath id="clip0_1_1273">
<rect width="16" height="16" fill="white"/>
</clipPath>
</defs>
</svg>
