<svg width="16" height="16" viewBox="0 0 16 16" fill="none" xmlns="http://www.w3.org/2000/svg">
<g clip-path="url(#clip0_1_1254)">
<mask id="mask0_1_1254" style="mask-type:luminance" maskUnits="userSpaceOnUse" x="0" y="0" width="16" height="16">
<path d="M16 0H0V16H16V0Z" fill="white"/>
</mask>
<g mask="url(#mask0_1_1254)">
<path fill-rule="evenodd" clip-rule="evenodd" d="M11.52 6.26C11.52 9.16502 9.16502 11.52 6.26 11.52C3.35498 11.52 1 9.16502 1 6.26C1 3.35498 3.35498 1 6.26 1C9.16502 1 11.52 3.35498 11.52 6.26ZM11.0256 10.3194C11.9575 9.22641 12.52 7.8089 12.52 6.26C12.52 2.8027 9.7173 0 6.26 0C2.8027 0 0 2.8027 0 6.26C0 9.7173 2.8027 12.52 6.26 12.52C7.80887 12.52 9.22635 11.9575 10.3193 11.0256C10.3248 11.0317 10.3305 11.0377 10.3364 11.0436L15.15 15.85C15.3453 16.0453 15.6547 16.0453 15.85 15.85C16.0453 15.6547 16.0453 15.3453 15.85 15.15L11.0435 10.3364C11.0376 10.3306 11.0316 10.3249 11.0256 10.3194Z" fill="#C80000"/>
</g>
</g>
<defs>
<clipPath id="clip0_1_1254">
<rect width="16" height="16" fill="white"/>
</clipPath>
</defs>
</svg>
